Coordinates
version=1
nRows=16
nColumns=40
inDegrees=yes

Units are S.I. units (second, meters, Newtons, ...)
Angles are in degrees.

endheader
time	pelvis_tilt	pelvis_list	pelvis_rotation	pelvis_tx	pelvis_ty	pelvis_tz	hip_flexion_r	hip_adduction_r	hip_rotation_r	knee_angle_r	knee_angle_r_beta	ankle_angle_r	subtalar_angle_r	mtp_angle_r	hip_flexion_l	hip_adduction_l	hip_rotation_l	knee_angle_l	knee_angle_l_beta	ankle_angle_l	subtalar_angle_l	mtp_angle_l	lumbar_extension	lumbar_bending	lumbar_rotation	arm_flex_r	arm_add_r	arm_rot_r	elbow_flex_r	pro_sup_r	wrist_flex_r	wrist_dev_r	arm_flex_l	arm_add_l	arm_rot_l	elbow_flex_l	pro_sup_l	wrist_flex_l	wrist_dev_l
     33.87000000	     -7.92659560	     -3.33704026	     -2.60999253	      1.08819230	      0.91687004	      0.42391838	     32.85503847	     -3.56159346	    -12.46441281	     16.86343763	     16.86343763	      0.46604830	      1.18717877	      8.36430824	      3.26050466	     -4.82113047	    -12.38628043	     14.22671442	     14.22671442	     19.09214911	     -3.35545837	     -4.70448088	    -12.17861000	      3.55421515	      0.28771743	    -11.62794062	    -16.48423212	     -6.40409786	     31.09902714	     46.84476323	      0.00000000	      0.00000000	      3.41414560	    -16.40957830	    -14.43683319	     79.16474280	     47.35050095	      0.00000000	      0.00000000
     33.88200000	     -7.69516341	     -3.39082679	     -2.54200797	      1.09066857	      0.91569677	      0.42637534	     31.63497308	     -3.23903787	    -13.67812481	     14.90232785	     14.90232785	      0.29149475	      2.69971923	      9.11657794	      1.81621834	     -4.92694301	    -12.65534362	     13.26995564	     13.26995564	     19.32129550	     -2.72432300	     -4.68608492	    -12.33894862	      3.67290929	      0.45960451	    -11.88456412	    -16.43987132	     -6.50818124	     31.62737971	     46.81333115	      0.00000000	      0.00000000	      3.46372018	    -16.19748653	    -14.20820234	     79.57776579	     47.35713045	      0.00000000	      0.00000000
     33.89400000	     -7.71241683	     -3.20511958	     -2.36449686	      1.09297387	      0.91382668	      0.42881107	     31.21700587	     -3.28576000	    -14.49236814	     14.30801166	     14.30801166	      0.24530141	      3.34075640	      8.99810863	      1.00206087	     -4.86875140	    -12.76033719	     12.94818857	     12.94818857	     19.69783691	     -2.24221536	     -4.67385262	    -12.06865906	      3.48656427	      0.51194876	    -12.29372425	    -16.30352909	     -6.67512839	     32.71415283	     46.74702991	      0.00000000	      0.00000000	      3.54557715	    -16.00106026	    -13.86749011	     79.90881608	     47.37018029	      0.00000000	      0.00000000
     33.90600000	     -7.84033306	     -3.07538083	     -2.26896839	      1.09512508	      0.91189868	      0.43150393	     31.08540152	     -3.22427420	    -14.77313779	     14.31182270	     14.31182270	      0.24651103	      3.17588140	      8.98498595	      0.50944461	     -4.90924146	    -12.70228039	     13.00902153	     13.00902153	     19.98590065	     -2.27603582	     -4.77265584	    -11.69949575	      3.36344440	      0.57250772	    -12.21022721	    -16.28929162	     -6.67567585	     32.77158335	     46.74478084	      0.00000000	      0.00000000	      3.51732900	    -15.92196039	    -13.83426697	     79.91317733	     47.36838590	      0.00000000	      0.00000000
     33.91800000	     -7.83132044	     -3.17070417	     -2.01971588	      1.09734498	      0.91040688	      0.43419185	     30.78471078	     -3.05334412	    -15.21619711	     14.64071467	     14.64071467	      0.27011686	      2.85600091	      8.66697488	     -0.10029807	     -5.21888928	    -12.41217638	     13.09788585	     13.09788585	     20.35282075	     -2.20278477	     -4.83950535	    -11.56454073	      3.51918473	      0.54438715	    -11.93343191	    -16.09692870	     -6.64526603	     32.98760952	     46.73341878	      0.00000000	      0.00000000	      3.42164289	    -15.42755424	    -13.60006646	     79.87723616	     47.35354075	      0.00000000	      0.00000000
     33.93000000	     -7.73983727	     -3.21353714	     -1.85770857	      1.09958936	      0.90893870	      0.43724179	     30.36606365	     -2.82923922	    -15.20364828	     14.92253571	     14.92253571	     -1.92715332	      1.53946993	      1.44966243	     -0.38048157	     -5.66869035	    -12.67523328	     14.12363909	     14.12363909	     21.52023594	     -1.48923251	     -3.53179166	    -11.51580835	      3.60572409	      0.86875055	    -12.40470903	    -16.17428757	     -6.49664895	     34.86495851	     46.58067312	      0.00000000	      0.00000000	      3.70741776	    -15.15450690	    -13.10754641	     79.37143117	     47.37788116	      0.00000000	      0.00000000
     33.94200000	     -7.68114733	     -3.33795757	     -1.70719995	      1.10158397	      0.90800086	      0.44028216	     30.29485777	     -2.68288874	    -15.30515588	     16.11122901	     16.11122901	     -1.64398455	      0.88583816	      0.81977343	     -0.63350313	     -6.11563129	    -12.39119157	     14.96526689	     14.96526689	     21.71652785	     -1.90904514	     -3.65891453	    -11.50003497	      3.77715809	      0.94801779	    -11.87881722	    -16.19138605	     -6.46348466	     35.01072339	     46.57142868	      0.00000000	      0.00000000	      3.62085660	    -14.83419216	    -12.94093940	     79.16964281	     47.36828734	      0.00000000	      0.00000000
     33.95400000	     -7.85400153	     -3.41598857	     -1.56652166	      1.10311647	      0.90695763	      0.44345973	     30.60778326	     -2.56945876	    -15.03745022	     17.54145472	     17.54145472	     -1.44866014	     -0.24615414	     -0.30806944	     -0.17686767	     -6.62511852	    -11.98607579	     16.60171548	     16.60171548	     21.87810547	     -2.62353842	     -3.87902896	    -11.24257042	      3.87116093	      1.00985228	    -11.18249435	    -16.07463383	     -6.33902822	     35.20135634	     46.55112141	      0.00000000	      0.00000000	      3.51223311	    -14.48646415	    -12.79497925	     78.64199361	     47.35920203	      0.00000000	      0.00000000
     33.96600000	     -7.80996707	     -3.57560829	     -1.43060381	      1.10463287	      0.90665945	      0.44667911	     30.57884892	     -2.35956925	    -14.84133350	     18.82995549	     18.82995549	     -1.07250651	     -1.24536368	     -1.22080696	      0.19632881	     -7.24365265	    -11.55912820	     18.49447511	     18.49447511	     21.86466077	     -3.47701115	     -4.16402481	    -11.26115386	      4.09200373	      1.08926276	    -10.37385872	    -16.09870415	     -6.23516501	     35.41148850	     46.53469757	      0.00000000	      0.00000000	      3.44788708	    -14.15084499	    -12.67932699	     78.08086135	     47.34930812	      0.00000000	      0.00000000
     33.97800000	     -7.86376631	     -3.74500386	     -1.31625009	      1.10591470	      0.90659300	      0.45006535	     30.60062464	     -2.07916148	    -14.48738858	     19.98261417	     19.98261417	     -0.65315850	     -2.26305184	     -2.03180246	      0.98533336	     -7.92887783	    -11.04621495	     20.90676490	     20.90676490	     21.60317291	     -4.64191967	     -4.61471716	    -11.24675746	      4.26170828	      1.14854918	     -9.39285587	    -16.08263697	     -6.07552895	     35.66477614	     46.51273984	      0.00000000	      0.00000000	      3.27613812	    -13.68503217	    -12.54318682	     77.24970889	     47.33431376	      0.00000000	      0.00000000
     33.99000000	     -7.84464500	     -3.93602552	     -1.19189377	      1.10704270	      0.90700386	      0.45344922	     30.43313262	     -1.76444267	    -14.22363894	     20.91866578	     20.91866578	     -0.07194771	     -3.07152796	     -2.58798931	      1.93461934	     -8.65324777	    -10.41452630	     23.67812382	     23.67812382	     20.99285001	     -6.02276837	     -5.18958293	    -11.33218962	      4.46789404	      1.19954424	     -8.30849827	    -16.13678283	     -5.92343704	     35.96173664	     46.49102460	      0.00000000	      0.00000000	      3.13088236	    -13.28599473	    -12.43886142	     76.34924090	     47.31983580	      0.00000000	      0.00000000
     34.00200000	     -7.84342911	     -4.11671830	     -1.07087620	      1.10797090	      0.90772498	      0.45682182	     30.16878765	     -1.42211409	    -13.97745108	     21.59292181	     21.59292181	      0.58228594	     -3.73977329	     -2.91087022	      3.13979100	     -9.35543899	     -9.63286132	     26.77964125	     26.77964125	     19.92463555	     -7.75787358	     -5.97487346	    -11.41592585	      4.65706631	      1.21022042	     -7.09364469	    -16.21619436	     -5.71989370	     36.32371078	     46.46244255	      0.00000000	      0.00000000	      2.97075772	    -12.87935297	    -12.35869290	     75.19971434	     47.30497029	      0.00000000	      0.00000000
     34.01400000	     -7.80811928	     -4.28368122	     -0.95439628	      1.10880258	      0.90879834	      0.46011524	     29.75153677	     -1.07447207	    -13.79331668	     22.02849511	     22.02849511	      1.34754258	     -4.18962494	     -2.84167117	      4.43372048	     -9.95034118	     -8.60563807	     29.93704270	     29.93704270	     17.84027292	    -10.31959603	     -7.86153757	    -11.52488137	      4.84755476	      1.24643130	     -5.83604389	    -16.41122842	     -5.10238126	     36.72169166	     46.38801341	      0.00000000	      0.00000000	      3.02986157	    -12.35954012	    -12.42144488	     73.36120152	     47.31062379	      0.00000000	      0.00000000
     34.02600000	     -7.74228229	     -4.53452647	     -0.81815513	      1.10952048	      0.91000673	      0.46344025	     29.13866427	     -0.65622693	    -13.90711037	     22.14953969	     22.14953969	      2.05496552	     -4.20893606	     -3.03076482	      6.00789690	    -10.76975365	     -7.85691565	     33.67404600	     33.67404600	     16.29352461	    -11.81825451	     -8.23278869	    -11.73015343	      5.08671724	      1.29402137	     -4.53419653	    -16.53649886	     -5.07393843	     37.28947428	     46.36782627	      0.00000000	      0.00000000	      2.68842780	    -12.01918342	    -12.17936736	     72.65805462	     47.28534001	      0.00000000	      0.00000000
     34.03800000	     -7.83539103	     -4.69651655	     -0.68725468	      1.10996155	      0.91116659	      0.46658279	     28.61696031	     -0.30104058	    -13.99200189	     22.04886260	     22.04886260	      2.66016939	     -4.20789038	     -3.06503298	      7.91941623	    -11.33550282	     -6.75623071	     37.49615023	     37.49615023	     14.17214495	    -14.00822882	     -8.41611041	    -11.70236784	      5.23662931	      1.10943900	     -3.11015572	    -16.65646860	     -4.92773204	     38.06920811	     46.32892470	      0.00000000	      0.00000000	      2.34962557	    -11.74747002	    -11.97158785	     71.21667241	     47.25491076	      0.00000000	      0.00000000
     34.05000000	     -7.84355674	     -4.90003691	     -0.55256332	      1.11039671	      0.91247384	      0.46967818	     27.90597256	      0.10143334	    -14.19570815	     21.75815519	     21.75815519	      3.24182429	     -4.01355407	     -3.13711513	      9.83881591	    -11.91337664	     -5.65895923	     41.37844189	     41.37844189	     12.00509010	    -15.79900471	     -8.12133003	    -11.77680352	      5.41999760	      1.09802699	     -1.74473694	    -16.85053992	     -4.75408058	     38.86608429	     46.28859806	      0.00000000	      0.00000000	      2.10074858	    -11.41261516	    -11.73493966	     69.79719877	     47.22238936	      0.00000000	      0.00000000
